<?xml version="1.0" encoding="utf-8"?>
<!-- Generator: Adobe Illustrator 24.3.0, SVG Export Plug-In . SVG Version: 6.00 Build 0)  -->
<svg version="1.1" id="Layer_1" xmlns="http://www.w3.org/2000/svg" xmlns:xlink="http://www.w3.org/1999/xlink" x="0px" y="0px"
	 viewBox="0 0 141.6 27.6" style="enable-background:new 0 0 141.6 27.6;" xml:space="preserve">
<style type="text/css">
	.st0{fill:#FFFFFF;stroke:#000000;stroke-width:2;stroke-linecap:round;stroke-miterlimit:10;}
	.st1{fill:#FFFFFF;}
	.st2{fill:#FF99CC;}
</style>
<g id="Layer_2_1_">
	<g id="Layer_1-2">
		<path class="st0" d="M74.9,26.3L74.9,26.3z"/>
		<g>
			<path class="st1" d="M73.6,26.3c-19.4,2-19.4-27.2,0-25.3c11.7-1.6,14.8,12.2,3.1,12.7C88.9,13.9,84.8,28,73.6,26.3z"/>
			<path d="M75.4,27.5c3.5,0,6.3-1,8-3.4c1.6-2.2,2-4.9,0.9-7c-0.4-0.9-1.3-2.1-3.2-3c1.8-0.9,2.6-2.3,3-3.2c0.8-2,0.9-4.7-0.5-6.8
				c-2.1-2.9-5.8-4-10.3-3.9C67.2,0,62.9,2.3,60,6.5c-2.9,4.6-2.9,10.8,0,15.3c2.8,4.4,6.5,5.8,13.2,5.7
				C74.1,27.5,74.8,27.5,75.4,27.5z M73.4,26c-5.1-0.3-9.3-1.6-11.6-5.5c-2.5-3.9-2.4-8.9,0.1-12.8c2.3-3.8,6.3-5.6,11.5-5.5
				c0,0,6.3-0.4,8.6,3c1.1,1.5,0.9,3.5,0.5,4.8c-0.9,1.9-3,3-6,3.1c-0.6,0-1,0.5-1,1c0,0.5,0.5,1,1,1c3.1,0.1,5.1,1.1,6,2.9
				c0.7,1.5,0.5,3.4-0.7,4.9c-2,2.3-3.7,3-7.2,3.2"/>
		</g>
		<g>
			<path class="st1" d="M63.6,12.3c0,0,5.8,0.1,5.8,7.1c-0.5,10.3-14.4,5.7-19.8,6.7c-7.7,0.2-4.8-11.7-5.3-16.2
				C44.8-2.6,60.2-1,58.1,12.3H63.6z"/>
			<path d="M59.6,27.5c3.7-0.3,6.4-0.6,8.4-2.6c1.4-1.3,2.7-3.4,2.8-5.8c0-7.3-5.5-7.9-7.8-7.9h-3.9c0.4-4-0.7-7.8-3.3-9.8
				c-1.7-1.2-4.5-1.7-7.4-0.7c-2.9,1.4-4.9,4.9-5.1,9.1v0.1c0,0-0.1,2.5-0.2,4.1c-0.2,4-0.8,9.2,2.1,11.8c1.1,1.1,2.1,1.5,4.5,1.6
				C49.6,27.4,58.1,27.6,59.6,27.5z M49,25.1c-0.9-0.2-1.9-0.7-2.4-1.2c-1.8-1.8-1.6-4.4-1.5-8.6c0.1-1.7,0.1-4.4,0.2-5.4
				c0.2-3.4,1.2-5.5,3.8-7c1.6-0.7,3.7-0.7,5.5,0.3c1.6,1,2.8,3.2,2.6,9l0,1.2h6c2.1,0,5.5,0.7,5.3,6.1c-0.3,2.5-1.3,3.1-2.3,4
				c-3,2.1-6.6,1.8-11,1.9C53.8,25.3,49.7,25.2,49,25.1z"/>
		</g>
		<g>
			<path class="st2" d="M133,13.8c7.2,0.2,7.6-12.5-0.1-12.5c0-0.1-6.9,0.2-6.6,6.8c0-6.3-6.6-6.6-6.6-6.6
				c-8.2-0.1-7.1,12.7-0.1,12.4c-7-0.3-8,12.6,0.1,12.5c0,0.1,6.7-0.1,6.6-6.7c0,6.7,6.6,6.6,6.6,6.6C141,26.4,140,13.5,133,13.8z"
				/>
			<path d="M119.8,27.4L119.8,27.4c1.9-0.1,5-0.9,6.5-3.5c0.8,1.2,1.8,2,2.7,2.5c1.8,1,3.6,1,3.9,1c2.6,0.1,4.6-1.1,5.8-3.1
				c1.4-2.5,1.3-5.9-0.2-8.4c-0.5-0.9-1.1-1.6-1.9-2.1c0.8-0.5,1.4-1.2,1.9-2c1.4-2.4,1.5-5.8,0.1-8.3c-1.2-2.1-3.2-3.2-5.6-3.2
				c-0.1,0-0.2,0-0.4,0c-2,0.1-4.9,1.1-6.3,3.7c-1.6-2.5-4.1-3.5-6.5-3.5c-2.6,0-4.6,1.1-5.8,3.1c-1.4,2.4-1.3,5.8,0.2,8.3
				c0.5,0.8,1.2,1.5,1.9,2c-0.7,0.5-1.4,1.2-1.9,2c-1.5,2.5-1.6,6-0.2,8.4C115.1,26.3,117.2,27.4,119.8,27.4L119.8,27.4z
				 M119.7,26.4L119.7,26.4L119.7,26.4z M119.7,25.4L119.7,25.4c-1.8,0-3.2-0.7-4.1-2.2c-1-1.8-0.9-4.4,0.2-6.3
				c0.6-0.9,1.6-2,3.3-2.1c0.2,0,0.3,0,0.5,0c0.6,0,1-0.5,1-1s-0.5-1-1-1c-0.2,0-0.3,0-0.5,0c-1.7-0.1-2.7-1.2-3.3-2.1
				c-1.1-1.8-1.2-4.4-0.2-6.2c0.8-1.4,2.2-2.1,4-2.1c0.2,0,5.4,0.4,5.6,5.3c0,0.2,0,0.3,0,0.4c0,0.6,0.5,1,1,1l0,0c0.6,0,1-0.5,1-1
				c0-0.2,0-0.3,0-0.4c0-1.5,0.5-2.8,1.4-3.7c1.4-1.4,3.5-1.7,4-1.7c0.1,0,0.1,0,0.2,0c2.2,0,3.3,1.2,3.9,2.2c1,1.8,1,4.5-0.1,6.3
				c-0.5,0.9-1.5,1.9-3.3,2c-0.2,0-0.3,0-0.4,0c-0.6,0-1,0.5-1,1s0.5,1,1,1c0.1,0,0.3,0,0.4,0c1.8,0.1,2.8,1.2,3.4,2.1
				c1.2,1.9,1.2,4.5,0.2,6.3c-0.8,1.4-2.2,2.1-4,2.1l0,0c-0.1,0-2.6,0-4.2-1.6c-0.9-0.9-1.4-2.2-1.4-3.8c0-0.1,0-0.1,0-0.2
				c0-0.6-0.5-1-1-1l0,0c-0.6,0-1,0.5-1,1c0,0.1,0,0.1,0,0.2c0,1.6-0.5,2.9-1.4,3.8C122.5,25.1,120.3,25.4,119.7,25.4L119.7,25.4z"
				/>
		</g>
		<g>
			<path class="st1" d="M34.3,22.5C43,34.7,58.1,16.9,34,1.4c-27.4,19.1-1.8,33.5,0.5,18.9"/>
			<path d="M33.4,0.6C18.9,10.7,19.9,18.8,21,21.8c1.4,3.5,4.8,5.8,8.3,5.4c2.1-0.2,3.8-1.4,4.9-3.2c2.3,2.8,5.2,4,8,3.3
				c2.9-0.6,5-3.1,5.6-6.4c0.4-2.5,0.8-11.3-13.3-20.4L34,0.2L33.4,0.6z M22.9,21.1C21.2,15.6,25.1,9,34,2.6
				c12.5,8.2,12.3,15.8,11.9,18c-0.4,2.5-2,4.4-4.1,4.8c-2.3,0.5-4.7-0.7-6.7-3.5c0.1-0.5,0.3-1,0.3-1.5c0.1-0.5-0.3-1.1-0.8-1.1
				c-0.5-0.1-1.1,0.3-1.1,0.8c-0.5,3-1.9,4.8-4.2,5.2C28.5,25.3,25,25.8,22.9,21.1z"/>
		</g>
		<g>
			<path class="st1" d="M16.1,7.4c-2.3-14.6-27.9-0.2-0.5,18.9c24.1-15.5,9-33.3,0.3-21.1"/>
			<path d="M15.6,27.5l0.5-0.3C30.2,18.1,29.8,9.3,29.4,6.8c-0.6-3.3-2.7-5.8-5.6-6.4c-2.8-0.7-5.7,0.5-8,3.3
				c-1.1-1.8-2.8-3-4.9-3.2C7.4,0.1,4,2.4,2.6,5.9C1.5,8.9,0.5,17,15,27.1L15.6,27.5z M10.9,2.4c2.3,0.4,3.7,2.2,4.2,5.2
				c0,0.5,0.6,0.9,1.1,0.8c0.5,0,0.9-0.6,0.8-1.1c0-0.5-0.2-1-0.3-1.5c2-2.8,4.4-4,6.7-3.5c2.1,0.4,3.7,2.3,4.1,4.8
				c0.4,2.2,0.6,9.8-11.9,18C6.7,18.7,2.8,12,4.5,6.6C6.7,1.8,10.2,2.4,10.9,2.4z"/>
		</g>
	</g>
	<g>
		<path class="st2" d="M112.9,11.6c2,19.6-27.5,19.6-25.6,0c-1.6-11.8,12.3-15,12.8-3.1C100.4-3.8,114.6,0.3,112.9,11.6z"/>
		<path d="M114,9.8c0-3.5-1-6.4-3.4-8.1c-2.2-1.6-5-2-7.1-0.9c-0.9,0.4-2.1,1.3-3,3.2c-0.9-1.8-2.3-2.9-3.2-3.3
			c-2-0.8-4.9-1.1-7,0.4c-2.9,2.1-4.1,6.1-4,10.6c-0.2,6.2,2.3,10.6,6.5,13.5c4.6,2.9,10.5,2.9,15.1,0c3.7-2.8,6-6.3,6.1-13.4
			C114.1,11.1,114,10.4,114,9.8z M112.4,12.8c-0.4,6.3-3.2,9.1-5,10.8c-3.8,2.7-9.3,2.8-13.4,0.4c-3.6-2.5-5.7-6.9-5.6-12.2
			c0,0-0.4-6.6,3-8.9c1.6-1.1,3.5-0.9,4.8-0.5c1.9,0.9,2.7,3.4,3.2,6.3c0,0.6,0.5,1,1,1s1-0.5,1-1c0.1-3.1,0.9-5.4,2.7-6.3
			c1.5-0.7,3.4-0.5,5,0.7c2.4,2,3,3.8,3.3,7.3"/>
	</g>
</g>
</svg>
