<svg xmlns="http://www.w3.org/2000/svg" viewBox="0 0 45.69 47"><defs><style>.cls-1{fill:#ffcffb;}</style></defs><g id="Layer_2" data-name="Layer 2"><g id="Layer_1-2" data-name="Layer 1"><path class="cls-1" d="M16.43,4.42c-3.07,6.08,1.22,12.34,1.41,12.65l3,4.35-4.58-2.68c-5.73-3.37-11,.24-13,1.92l2.81,2.89L3.28,26.4c2,1.69,7.3,5.26,13,1.92l4.62-2.7L17.84,30c-.19.27-4.49,6.53-1.41,12.65l3.38-1.76,2.46,3.37c1.27-.76,4-3.44,4-12.19l.1-3.7,2,3.26c0,.07,4.46,6.88,10.43,6.16l.15-3.5,3.64-.72a13,13,0,0,0-8.85-9.15l-3.07-1.08,3.1-1.12c6.3-2.22,8.43-6.39,9.12-8.34l-3.49-.72L39.07,9.7c-6.08-.31-10.65,5.9-10.69,6L26,19.05l.35-4.15c.68-8.1-2.53-11.1-4.08-12L19.81,6.22Z"/><path d="M19.12,3.21,15.58,1.36,15,2.25c-3.15,4.93-2,10-.66,13.14C7,13.45.86,19.7.77,19.78L0,20.62l2.86,2.93L0,26.43l.77.85c.08.07,6.19,6.32,13.58,4.38C13,34.78,11.86,39.88,15,44.81l.57.89,3.54-1.85L21.38,47l.71-.12c.25-.05,5.5-1.14,6.42-11.53,2.31,2.53,6.47,5.85,11.73,4.59l.84-.21.15-3.47,4-.79-.09-1a14.69,14.69,0,0,0-8-11.1c7.3-3.74,8.33-9.84,8.38-10.12l.17-1.09-4.07-.84-.31-3.61-.9-.14c-5.09-.92-9.34,2-11.68,4.31C28.39,2.45,22.53.36,22.26.27L21.42,0Zm7.21,11.68L26,19.05l2.46-3.38c0-.07,4.61-6.29,10.69-6l.29,3.46,3.48.73c-.68,1.94-2.82,6.06-9.11,8.33l-3.1,1.12,3.11,1.07a13,13,0,0,1,8.84,9.15L39,34.25l-.15,3.5c-6,.72-10.33-6.25-10.38-6.33l-2.15-3.51V32c0,8.75-2.77,11.43-4,12.19l-2.46-3.37-3.38,1.76C13.36,36.55,17.66,30.29,17.85,30l3.09-4.37-4.62,2.7c-5.73,3.37-11-.24-13-1.92l2.83-2.88-2.83-2.9c2-1.68,7.3-5.26,13-1.91l4.58,2.67-3-4.34c-.19-.28-4.49-6.54-1.41-12.65l3.38,1.76L22.3,2.79C23.76,3.79,27,6.75,26.33,14.89Z"/></g></g></svg>