<svg xmlns="http://www.w3.org/2000/svg" viewBox="0 0 148.79 47"><defs><style>.cls-1{fill:#ffcffb;}</style></defs><g id="Layer_2" data-name="Layer 2"><g id="Layer_1-2" data-name="Layer 1"><path class="cls-1" d="M48.73,4.42C45.66,10.5,50,16.76,50.14,17.07l3,4.35-4.58-2.68c-5.73-3.37-11,.24-13,1.92l2.81,2.89L35.58,26.4c2,1.69,7.3,5.26,13,1.92l4.62-2.7L50.14,30c-.19.27-4.49,6.53-1.41,12.65l3.38-1.76,2.46,3.37c1.27-.76,4-3.44,4-12.19l.1-3.7,2,3.26c0,.07,4.46,6.88,10.43,6.16l.15-3.5,3.64-.72A13,13,0,0,0,66,24.42L63,23.34l3.1-1.12c6.3-2.22,8.43-6.39,9.12-8.34l-3.49-.72L71.37,9.7c-6.08-.31-10.65,5.9-10.69,6l-2.41,3.35.35-4.15c.68-8.1-2.53-11.1-4.08-12L52.11,6.22Z"/><path d="M51.42,3.21,47.88,1.36l-.57.89c-3.15,4.93-2,10-.66,13.14-7.39-1.94-13.49,4.31-13.58,4.39l-.77.84,2.86,2.93L32.3,26.43l.77.85c.08.07,6.19,6.32,13.58,4.38-1.31,3.12-2.49,8.22.66,13.15l.57.89,3.54-1.85L53.68,47l.71-.12c.25-.05,5.5-1.14,6.42-11.53,2.31,2.53,6.47,5.85,11.73,4.59l.84-.21.15-3.47,4-.79-.09-1a14.69,14.69,0,0,0-8-11.1c7.3-3.74,8.33-9.84,8.38-10.12L78,12.16l-4.07-.84-.31-3.61-.9-.14c-5.09-.92-9.34,2-11.68,4.31C60.69,2.45,54.83.36,54.56.27L53.72,0Zm7.21,11.68-.36,4.16,2.46-3.38c0-.07,4.61-6.29,10.69-6l.29,3.46,3.48.73c-.68,1.94-2.82,6.06-9.11,8.33L63,23.31l3.11,1.07a13,13,0,0,1,8.84,9.15l-3.63.72-.15,3.5c-6,.72-10.33-6.25-10.38-6.33l-2.15-3.51V32c0,8.75-2.77,11.43-4,12.19l-2.46-3.37-3.38,1.76C45.66,36.55,50,30.29,50.15,30l3.09-4.37-4.62,2.7c-5.73,3.37-11-.24-13-1.92l2.83-2.88-2.83-2.9c2-1.68,7.3-5.26,13-1.91l4.58,2.67-3-4.34c-.19-.28-4.49-6.54-1.41-12.65l3.38,1.76L54.6,2.79C56.06,3.79,59.29,6.75,58.63,14.89Z"/><path d="M18.63,42.67l-12.34-28A7.55,7.55,0,0,0,3.9,11.38a7.42,7.42,0,0,0-3.9-1V8.16c.94,0,2.14.07,3.6.1s3.16.05,5.06.05c2.13,0,4,0,5.52-.05s2.74-.06,3.58-.1v2.18a13.33,13.33,0,0,0-3.7.46c-.83.28-1.29.72-1.38,1.33a4.87,4.87,0,0,0,.58,2.57l9.09,20.9-1.25.58,7.59-17.95a11.62,11.62,0,0,0,1.14-4.45,2.84,2.84,0,0,0-1.33-2.52,8.43,8.43,0,0,0-4.06-.92V8.16c1.09,0,2.11.06,3,.08l2.69,0,2.54,0c1.06,0,2.08,0,3-.05l3-.1v2.18a7.48,7.48,0,0,0-2.9.8,6.56,6.56,0,0,0-2.16,1.94,16.67,16.67,0,0,0-1.86,3.46L20.66,42.67Z"/><path d="M96.58,43.1a15.07,15.07,0,0,1-7.16-1.55A9.86,9.86,0,0,1,85.06,37a17.5,17.5,0,0,1-1.45-7.55V14.5a6.54,6.54,0,0,0-.39-2.59,2.3,2.3,0,0,0-1.57-1.18A14.9,14.9,0,0,0,78,10.34V8.16q2.37.15,8.81.15,6,0,8.42-.15v2.18a13.48,13.48,0,0,0-3.41.39,2.19,2.19,0,0,0-1.5,1.18A7,7,0,0,0,90,14.5v15q0,5.74,1.93,8.37t6.24,2.61q4.45,0,6.58-2.9t2.13-8.86V15.33a9.31,9.31,0,0,0-.38-3.05A2.4,2.4,0,0,0,105,10.85a12.52,12.52,0,0,0-3.41-.51V8.16c.58,0,1.39.07,2.42.1s2.27.05,3.73.05c1.74,0,3.2,0,4.37-.05s2.06-.06,2.64-.1v2.18a11.67,11.67,0,0,0-3.48.56,2.74,2.74,0,0,0-1.65,1.5,8.35,8.35,0,0,0-.43,3.07V29q0,7.11-3.1,10.62C104,41.93,100.83,43.1,96.58,43.1Z"/><path d="M111,42.42V40.25a12.88,12.88,0,0,0,3-.8,10.07,10.07,0,0,0,2.56-1.6,19.22,19.22,0,0,0,2.59-2.73L127.35,25l1.74,1.25L123,34a8.06,8.06,0,0,0-1.8,3.29,1.93,1.93,0,0,0,.9,2.11,7.3,7.3,0,0,0,3.6.85v2.17c-.9-.06-2-.1-3.41-.12l-4.47,0-3.46,0C113.31,42.32,112.2,42.36,111,42.42Zm20.62,0V40.25c2-.07,3.18-.4,3.65-1s.23-1.52-.7-2.78L117.29,13.39A7.8,7.8,0,0,0,114.75,11a8.46,8.46,0,0,0-3.56-.7V8.16c1.13,0,2.41.07,3.85.1s3,.05,4.62.05l5.1,0c1.4,0,2.56-.06,3.46-.13v2.18c-1.9.07-3.09.4-3.56,1s-.21,1.53.75,2.79L142.74,37.2a7.38,7.38,0,0,0,2.51,2.3,9.06,9.06,0,0,0,3.54.75v2.17l-3.8-.09c-1.44,0-3,0-4.67,0l-5.13,0C133.77,42.32,132.59,42.36,131.66,42.42ZM131.32,25l-1.94-1.07,5.91-7.6A7.55,7.55,0,0,0,137,13.17a1.87,1.87,0,0,0-.78-2,6.43,6.43,0,0,0-3.34-.82V8.16l3.56.1c1.24,0,2.51.05,3.8.05s2.41,0,3.46-.05l3.22-.1v2.18a12.66,12.66,0,0,0-3,.8,9.47,9.47,0,0,0-2.59,1.6,19.22,19.22,0,0,0-2.59,2.73Z"/></g></g></svg>