<svg xmlns="http://www.w3.org/2000/svg" viewBox="0 0 178.08 39.65"><defs><style>.cls-1{fill:#ffcffb;}</style></defs><g id="Layer_2" data-name="Layer 2"><g id="Layer_1-2" data-name="Layer 1"><path d="M15.83,36.13,5.35,12.32a6.35,6.35,0,0,0-2-2.78A6.24,6.24,0,0,0,0,8.66V6.81l3.06.08c1.25,0,2.68,0,4.3,0,1.81,0,3.37,0,4.69,0l3-.08V8.66A10.79,10.79,0,0,0,12,9.05c-.7.23-1.09.61-1.17,1.13a4.14,4.14,0,0,0,.49,2.18L19,30.13l-1.07.49,6.46-15.26a10,10,0,0,0,1-3.78,2.4,2.4,0,0,0-1.13-2.14,7.09,7.09,0,0,0-3.46-.78V6.81l2.59.06,2.28,0,2.16,0c.91,0,1.77,0,2.59,0l2.51-.08V8.66a6.18,6.18,0,0,0-2.46.67A5.47,5.47,0,0,0,28.61,11,14.49,14.49,0,0,0,27,13.92L17.56,36.13Z"/><path d="M49.07,34.53a7,7,0,0,1-3.5,1.39H43.32c-2.77,0-3.85-.58-3.88-2.92a8,8,0,0,1-2.84,2.62,7.74,7.74,0,0,1-3.74.88A6.31,6.31,0,0,1,28.48,35a5,5,0,0,1-1.62-3.93,5,5,0,0,1,.9-3.08,6.52,6.52,0,0,1,2.35-1.91,18.49,18.49,0,0,1,3-1.2l3-.88a9.12,9.12,0,0,0,2.35-1,1.73,1.73,0,0,0,.9-1.52V19.76A3.53,3.53,0,0,0,38.37,17,4.56,4.56,0,0,0,35.25,16a6.47,6.47,0,0,0-2.49.41c-.65.27-1,.63-1,1.07a1.63,1.63,0,0,0,.29.86,11.27,11.27,0,0,1,.56,1,2.65,2.65,0,0,1,.26,1.15,1.72,1.72,0,0,1-.66,1.4,2.66,2.66,0,0,1-1.76.53,2.73,2.73,0,0,1-2.06-.8,2.83,2.83,0,0,1-.78-2.07,3.92,3.92,0,0,1,1.19-2.82,8.1,8.1,0,0,1,3.25-1.91,14.41,14.41,0,0,1,4.69-.7,10.76,10.76,0,0,1,4.4.76,4.82,4.82,0,0,1,2.47,2.42,10.57,10.57,0,0,1,.78,4.43V32.22a2.3,2.3,0,0,0,.33,1.38,1.15,1.15,0,0,0,1,.43M35,33.46a5.07,5.07,0,0,0,2.45-.62,6,6,0,0,0,2-1.81V24a3.16,3.16,0,0,1-1.29,1.05c-.59.28-1.24.57-2,.84a16,16,0,0,0-2,1,5.16,5.16,0,0,0-1.61,1.37,3.5,3.5,0,0,0-.61,2.14,3,3,0,0,0,.82,2.25A3.12,3.12,0,0,0,35,33.46Z"/><path d="M45.57,35.92V34A6.58,6.58,0,0,0,49,33.4a2.62,2.62,0,0,0,1-2.33V9.64a3.49,3.49,0,0,0-1-2.73A5.37,5.37,0,0,0,45.57,6V4.17l1.77.08c.6,0,1.2,0,1.81,0a30.38,30.38,0,0,0,3.1-.15A20.36,20.36,0,0,0,55,3.72V31.07a2.6,2.6,0,0,0,1,2.35,6.78,6.78,0,0,0,3.4.61v1.89l-1.73-.06-2.45-.06c-.89,0-1.77,0-2.65,0q-1.93,0-3.93.06Z"/><path d="M67.53,36.5a10.2,10.2,0,0,1-5.32-1.34,8.8,8.8,0,0,1-3.46-3.84,13.56,13.56,0,0,1-1.21-6,13.47,13.47,0,0,1,1.25-6,9,9,0,0,1,3.6-3.85,11,11,0,0,1,5.55-1.33,10,10,0,0,1,4.84,1.07,6.84,6.84,0,0,1,3,3.33,13.72,13.72,0,0,1,1,5.88H61L61,22.6H72a11.56,11.56,0,0,0-.4-3.42,5,5,0,0,0-1.37-2.34A3.51,3.51,0,0,0,67.78,16a4.2,4.2,0,0,0-3.33,1.68A9.37,9.37,0,0,0,62.8,23l.08.16c0,.25,0,.53,0,.83v1a11,11,0,0,0,1.59,6.38A5.23,5.23,0,0,0,69,33.58a6.28,6.28,0,0,0,3.5-1,7.82,7.82,0,0,0,2.59-3l1.69.95A9.13,9.13,0,0,1,73.23,35,10.32,10.32,0,0,1,67.53,36.5Z"/><path d="M133.71,36.5a12.76,12.76,0,0,1-6.09-1.32,8.34,8.34,0,0,1-3.7-3.9,14.79,14.79,0,0,1-1.24-6.42V12.19a5.57,5.57,0,0,0-.33-2.2A2,2,0,0,0,121,9,12.83,12.83,0,0,0,118,8.66V6.81c1.35.08,3.84.12,7.49.12,3.4,0,5.78,0,7.16-.12V8.66a11.7,11.7,0,0,0-2.91.32,1.89,1.89,0,0,0-1.27,1,5.83,5.83,0,0,0-.31,2.2V24.9q0,4.91,1.65,7.12t5.3,2.22a6.49,6.49,0,0,0,5.6-2.47c1.2-1.64,1.81-4.15,1.81-7.53V12.89a7.7,7.7,0,0,0-.33-2.59,2.06,2.06,0,0,0-1.3-1.21,9.92,9.92,0,0,0-2.9-.43V6.81l2.06.08c.88,0,1.93,0,3.16,0,1.49,0,2.73,0,3.73,0l2.24-.08V8.66a9.74,9.74,0,0,0-3,.47,2.3,2.3,0,0,0-1.4,1.27A7,7,0,0,0,144.4,13V24.49q0,6-2.63,9T133.71,36.5Z"/><path d="M146,35.92V34.07a10.37,10.37,0,0,0,2.57-.67A8.48,8.48,0,0,0,150.75,32a16.22,16.22,0,0,0,2.2-2.33l6.91-8.63,1.48,1.07-5.18,6.62a6.8,6.8,0,0,0-1.52,2.8,1.63,1.63,0,0,0,.76,1.78,6,6,0,0,0,3.06.72v1.85c-.76-.05-1.73-.08-2.9-.1l-3.8,0-2.94,0C147.93,35.84,147,35.87,146,35.92Zm17.52,0V34.07c1.68,0,2.71-.33,3.11-.84s.2-1.29-.6-2.36L151.31,11.25a6.59,6.59,0,0,0-2.16-2,7,7,0,0,0-3-.59V6.81l3.27.08c1.22,0,2.53,0,3.92,0l4.34,0c1.19,0,2.18,0,2.94-.1V8.66c-1.62.05-2.62.33-3,.84s-.18,1.29.64,2.36l14.72,19.62a6.32,6.32,0,0,0,2.14,2,7.45,7.45,0,0,0,3,.63v1.85l-3.23-.08c-1.22,0-2.54,0-4,0l-4.36,0C165.32,35.84,164.32,35.87,163.52,35.92Zm-.28-14.84-1.65-.91,5-6.46a6.49,6.49,0,0,0,1.48-2.65,1.58,1.58,0,0,0-.66-1.71,5.39,5.39,0,0,0-2.84-.69V6.81l3,.08c1,0,2.13,0,3.22,0s2,0,2.94,0l2.74-.08V8.66a10.82,10.82,0,0,0-2.55.67,8.41,8.41,0,0,0-2.2,1.36,16.8,16.8,0,0,0-2.2,2.33Z"/><path class="cls-1" d="M91.13,3.65c-2.59,5.13,1,10.41,1.19,10.67L94.85,18,91,15.73c-4.83-2.84-9.28.2-11,1.62l2.38,2.44L80,22.19c1.69,1.43,6.16,4.44,11,1.62l3.9-2.28-2.58,3.7c-.16.23-3.79,5.51-1.19,10.67L94,34.42l2.07,2.84c1.08-.64,3.38-2.9,3.38-10.28l.08-3.12,1.69,2.75c0,.05,3.76,5.8,8.8,5.19l.13-2.95,3.06-.61a10.92,10.92,0,0,0-7.46-7.72l-2.62-.9,2.61-.95c5.31-1.91,7.11-5.39,7.7-7l-3-.61-.24-2.92c-5.13-.26-9,5-9,5.06L99.14,16l.3-3.5C100,5.68,97.3,3.15,96,2.39L94,5.17Z"/><path d="M93.4,2.71l-3-1.56-.48.75A11.63,11.63,0,0,0,89.37,13C83.14,11.35,78,16.62,77.91,16.69l-.64.71,2.41,2.47L77.27,22.3l.64.72c.07.05,5.23,5.33,11.46,3.69a11.75,11.75,0,0,0,.56,11.1l.48.75,3-1.56,1.9,2.65.6-.1c.21,0,4.64-1,5.42-9.73,2,2.14,5.46,4.94,9.9,3.88l.7-.18.13-2.93,3.38-.66-.08-.85a12.4,12.4,0,0,0-6.75-9.36c6.16-3.16,7-8.3,7.07-8.54l.14-.92-3.43-.71-.26-3.05-.76-.11c-4.27-.71-7.83,1.78-9.83,3.7-.29-8-5.23-9.72-5.46-9.79L95.34,0Zm6.08,9.85-.3,3.51,2.07-2.85c0-.06,3.89-5.31,9-5.06l.24,2.92,2.94.61c-.57,1.64-2.38,5.12-7.69,7l-2.61,1,2.61.9a11,11,0,0,1,7.47,7.72l-3.06.61-.13,3c-5.06.61-8.71-5.27-8.76-5.34l-1.81-3V27c0,7.39-2.34,9.65-3.37,10.29L94,34.46,91.17,36c-2.63-5.11,1-10.39,1.16-10.64l2.6-3.69L91,23.9c-4.83,2.84-9.28-.2-11-1.62l2.39-2.43-2.39-2.44C81.75,16,86.23,13,91,15.79l3.87,2.26-2.53-3.67c-.16-.23-3.79-5.51-1.19-10.67L94,5.2l2-2.85C97.31,3.2,100,5.69,99.48,12.56Z"/></g></g></svg>